<svg width="704" height="444" viewBox="0 0 704 444" fill="none" xmlns="http://www.w3.org/2000/svg">
<g clip-path="url(#clip0_174_2916)">
<path d="M682.946 440.358C682.722 440.979 643.74 441.726 643.46 442.347H577.026L572.985 442.331L557.583 442.282H383.478L369.167 442.264H367.391L343.517 442.233L332.631 442.218H198.584L142.595 442.159H41.3495C41.3495 442.159 41.1852 441.659 40.8464 440.662L40.7925 440.536C40.7925 440.536 40.736 440.412 40.736 440.353C40.5127 439.853 -76.4352 192.63 86.9884 147.706C149.539 130.507 176.102 121.912 241.225 38.5107C296.341 -32.0785 490.199 5.65409 545.161 61.515C552.367 68.8405 614.093 114.409 588.261 166.509C571.951 199.402 620.095 207.567 644.25 209.483C726.87 216.036 683.505 439.111 682.946 440.358Z" fill="#E9F3FE"/>
<path d="M218.48 77.8169C227.265 63.6398 251.775 76.2869 251.775 76.2869C251.775 76.2869 261.311 108.605 266.245 110.792C271.179 112.981 263.467 81.5646 263.467 81.5646C273.689 83.5944 295.342 103.441 295.342 103.441C295.342 103.441 284.306 134.463 289.625 135.368C294.944 136.269 297.999 107.397 297.999 107.397C306.744 113.187 312.346 127.146 312.346 127.146C318.073 148.852 290 155.111 290 155.111C290 155.111 286.406 165.945 289.381 180.511C289.381 180.511 290.205 183.285 290.572 187.684L287.951 186.893C287.949 186.123 287.915 185.371 287.851 184.637C287.851 184.632 287.851 184.627 287.851 184.624C287.851 184.614 287.851 184.604 287.849 184.593C287.79 184.132 287.705 183.478 287.595 182.677C287.595 182.677 287.595 182.672 287.595 182.669C287.266 180.856 287.071 179.529 286.981 178.589C286.981 178.587 286.981 178.584 286.981 178.581C286.059 172.922 284.53 165.447 282.63 163.405C282.63 163.405 283.043 163.083 283.552 162.367C283.256 162.697 282.951 163.042 282.63 163.405C275.258 171.696 252.347 166.545 240.623 160.206C228.897 153.867 235.402 151.974 243.85 148.262C252.298 144.55 265.942 150.312 270.781 149.318C275.619 148.324 270.206 144.239 261.683 142.368C253.161 140.501 246.492 147.602 232.65 144.834C218.809 142.062 216.16 113.574 216.16 113.574C224.585 119.269 242.785 119.148 244.389 116.124C245.994 113.102 221.225 105.986 217.669 103.863C214.114 101.741 209.696 91.9965 218.48 77.8195V77.8169Z" fill="#DFEBFD"/>
<path d="M405.27 117.164C398.983 107.024 381.451 116.07 381.451 116.07C381.451 116.07 374.628 139.19 371.098 140.756C367.568 142.322 373.085 119.846 373.085 119.846C365.771 121.299 350.279 135.496 350.279 135.496C350.279 135.496 358.173 157.692 354.369 158.338C350.564 158.985 348.377 138.327 348.377 138.327C342.121 142.469 338.112 152.455 338.112 152.455C334.015 167.985 354.099 172.461 354.099 172.461C354.099 172.461 356.669 180.212 354.541 190.633C354.541 190.633 353.95 192.617 353.688 195.764L355.562 195.2C355.562 194.649 355.588 194.111 355.634 193.588C355.634 193.585 355.634 193.583 355.634 193.578C355.634 193.57 355.634 193.562 355.634 193.554C355.675 193.225 355.737 192.756 355.816 192.181C355.816 192.181 355.816 192.179 355.816 192.176C356.053 190.878 356.191 189.93 356.255 189.258V189.253C356.915 185.204 358.009 179.856 359.369 178.393C359.369 178.393 359.074 178.164 358.709 177.651C358.92 177.888 359.138 178.136 359.369 178.393C364.644 184.325 381.035 180.639 389.424 176.103C397.813 171.567 393.159 170.213 387.116 167.557C381.073 164.901 371.311 169.025 367.848 168.312C364.385 167.601 368.259 164.677 374.358 163.34C380.455 162.004 385.227 167.086 395.128 165.105C405.031 163.122 406.926 142.742 406.926 142.742C400.898 146.817 387.876 146.729 386.728 144.568C385.581 142.407 403.301 137.315 405.845 135.798C408.389 134.278 411.549 127.308 405.265 117.164H405.27Z" fill="#CDE0FB"/>
<path d="M321.996 372.401C321.996 372.401 313.076 357.271 301.958 352.13C301.958 352.13 303.498 386.014 297.194 385.911C290.894 385.81 298.192 348.029 298.192 348.029C298.192 348.029 269.701 328.935 257.541 328.396C257.541 328.396 271.957 363.319 265.879 361.663C259.795 360.006 243.112 324.368 243.112 324.368C243.112 324.368 212.588 314.09 204.928 332.015C197.268 349.94 204.083 360.411 208.56 362.237C213.042 364.061 242.891 367.904 241.572 371.677C240.25 375.451 219.249 378.807 208.519 373.717C208.519 373.717 216.577 406.151 233.049 406.909C249.522 407.663 255.978 398.28 266.148 398.934C276.321 399.586 283.291 403.346 277.874 405.35C272.463 407.354 255.693 403.109 246.588 408.889C237.482 414.667 230.302 418.005 244.958 423.252C259.613 428.501 286.974 430.408 294.034 419.527C296.59 421.555 299.666 429.916 301.724 436.288V436.296C301.997 437.367 302.451 438.864 303.149 440.901C303.149 440.904 303.152 440.904 303.152 440.904V440.909C303.298 441.396 303.426 441.836 303.537 442.223H306.378C306.14 441.468 305.911 440.806 305.703 440.247C305.195 438.856 304.836 438.091 304.836 438.091C298.844 421.794 301.09 408.645 301.09 408.645C301.09 408.645 332.416 396.456 321.994 372.398L321.996 372.401ZM294.052 419.504C294.352 419.041 294.639 418.59 294.917 418.165C294.511 418.968 294.134 419.409 294.052 419.504Z" fill="#AFCDFB"/>
<path d="M343.512 313.21V442.236L332.625 442.223H332.217V313.21H343.512Z" fill="#94B0ED"/>
<path d="M349.455 313.21H220.797V239.094C220.797 203.469 249.621 174.545 285.126 174.545C320.63 174.545 349.455 203.469 349.455 239.094V313.21Z" fill="#AFCDFB"/>
<path d="M386.042 174.545H281.197V258.595H373.235L386.042 174.545Z" fill="#AFCDFB"/>
<path d="M321.713 313.21H450.371V239.094C450.371 203.445 421.57 174.545 386.042 174.545C350.515 174.545 321.713 203.445 321.713 239.094V313.21Z" fill="#628AD3"/>
<path d="M328.637 305.748H443.449V239.609C443.449 207.796 417.748 182.007 386.043 182.007C354.338 182.007 328.637 207.796 328.637 239.609V305.748Z" fill="#233862"/>
<path d="M552.551 313.21H319.78C317.727 313.21 316.061 311.538 316.061 309.477C316.061 307.417 317.727 305.745 319.78 305.745H552.551C554.605 305.745 556.271 307.417 556.271 309.477C556.271 311.538 554.605 313.21 552.551 313.21Z" fill="#628AD3"/>
<path d="M366.033 320.054H311.51C309.472 320.054 307.816 318.392 307.816 316.347V313.045H369.529V316.551C369.529 318.485 367.963 320.056 366.036 320.056L366.033 320.054Z" fill="#94B0ED"/>
<path d="M432.14 116.83C432.14 116.83 431.368 108.368 440.789 108.368C440.789 108.368 437.934 109.146 436.456 110.699C436.456 110.699 442.465 107.16 449.006 112.6C455.546 118.04 451.483 131.682 453.47 134.273C455.459 136.864 463.204 137.382 462.257 145.756C461.309 154.132 437.677 164.621 439.195 171.552C439.195 171.552 429.933 157.89 436.556 151.657C436.556 151.657 433.329 154.706 432.998 158.333C432.998 158.333 432.122 151.252 436.612 148.988C440.586 146.984 443.841 139.654 443.497 138.345C443.153 137.034 432.138 116.83 432.138 116.83H432.14Z" fill="#2C3A64"/>
<path d="M445.439 152.362C445.439 152.362 432.034 186.306 429.143 185.049C426.253 183.792 409.229 178.365 409.229 178.365L408.109 182.522C408.109 182.522 424.31 195.048 432.647 195.597C440.983 196.146 452.275 171.498 452.275 171.498L445.439 152.36V152.362Z" fill="#FFB27D"/>
<path d="M445.58 176.719L458.8 223.081C458.995 223.763 459.06 224.456 459.016 225.126C458.857 227.562 457.193 229.749 454.721 230.46L374.482 253.498C371.997 254.211 369.427 253.22 368.01 251.221C367.628 250.683 367.328 250.072 367.138 249.4L353.923 203.059C353.019 199.888 354.844 196.589 357.996 195.682L438.236 172.644C441.383 171.74 444.669 173.559 445.583 176.719H445.58Z" fill="#F57A44"/>
<path d="M445.581 176.719L409.658 221.481L354.596 205.431L353.921 203.059C353.017 199.888 354.842 196.589 357.995 195.682L438.234 172.644C441.381 171.74 444.667 173.559 445.581 176.719Z" fill="#FC9774"/>
<path d="M415.172 179.233C415.172 179.233 407.831 176.121 406.814 180.06C406.278 182.141 405.015 184.892 407.281 184.683C409.545 184.477 411.82 182.952 412.071 181.711C412.323 180.472 415.172 179.23 415.172 179.23V179.233Z" fill="#FFB27D"/>
<path d="M507.574 208.795C507.513 208.906 507.446 209.022 507.382 209.138C505.842 211.824 502.307 218.408 498.415 225.61C496.575 229.028 494.647 232.585 492.819 235.934C489.67 241.711 486.802 246.855 485.131 249.575C483.429 252.339 482.179 254.281 481.671 255.059L481.666 255.064C481.514 255.303 481.481 255.584 481.501 255.865C481.678 258.304 481.63 260.725 481.391 263.111C479.042 286.548 463.294 299.105 463.294 299.105L458.611 299.8C458.611 299.8 465.237 275.165 467.19 261.238C467.519 258.879 467.663 256.965 467.55 255.718C467.203 252.089 467.847 246.762 469.062 240.647C471.223 229.777 475.189 216.437 478.637 205.761C478.855 205.078 485.439 181.175 485.439 181.175C490.966 186.023 511.127 188.024 511.127 188.024C511.127 188.024 514.546 196.364 507.577 208.798L507.574 208.795Z" fill="#2B478B"/>
<path d="M448.779 305.742H468.322C468.322 305.742 468.792 302.755 467.77 300.485C466.792 298.309 465.398 298.239 467.593 294.829C466.35 296.112 462.359 296.642 459.533 296.261C459.186 296.825 457.302 300.604 456.144 301.436C454.866 302.358 449.172 302.028 448.779 305.74V305.742Z" fill="#233862"/>
<path d="M507.573 208.795C507.512 208.906 507.445 209.022 507.381 209.138C505.841 211.824 497.511 227.264 493.619 234.465C498.129 215.848 494.993 197.23 494.993 197.23L507.576 208.793L507.573 208.795Z" fill="#233862"/>
<path d="M434.807 115.642C434.679 115.127 445.968 120.763 446.541 121.399C451.837 127.292 450.327 134.984 447.295 135.058C445.352 135.105 445.73 138.348 445.73 138.348L424.082 129.16C424.082 129.16 426.688 113.909 434.804 115.645L434.807 115.642Z" fill="#2C3A64"/>
<path d="M442.082 153.071C442.082 153.071 439.199 156.066 439.199 165.033C439.199 165.033 443.17 171.325 453.474 172.917C453.474 172.917 444.618 153.066 442.082 153.071Z" fill="#61A0E0"/>
<path d="M492.336 189.479L492.27 185.811C499.552 186.734 517.38 177.08 517.38 177.08C517.38 177.08 524.999 182.164 526.041 196.686C526.549 203.775 529.771 233.749 530.128 242.7C530.259 245.943 530.3 248.259 530.315 249.183C530.315 249.189 530.315 249.191 530.315 249.194C530.32 249.477 530.451 249.724 530.626 249.948C532.133 251.87 533.439 253.907 534.571 256.017C545.684 276.765 539.872 304.954 539.872 304.954L537.292 304.295C537.292 304.295 527.894 275.07 521.754 262.428C520.712 260.285 519.765 258.616 518.972 257.65C516.661 254.835 514.228 250.057 511.828 244.305C507.292 233.43 492.334 189.474 492.334 189.474L492.336 189.479Z" fill="#2B478B"/>
<path d="M524.334 305.743H543.877C543.877 305.743 544.346 302.755 543.325 300.485C542.347 298.309 540.814 297.32 541.181 294.687C539.939 295.97 537.916 297.407 535.09 297.026C534.743 297.59 532.854 300.604 531.699 301.436C530.423 302.358 524.727 302.028 524.334 305.74V305.743Z" fill="#233862"/>
<path d="M454.792 177.129C457.418 177.577 454.363 179.671 457.975 180.065C463.114 180.629 468.42 181.013 471.2 182.126C472.214 182.533 472.892 183.032 473.105 183.674C474.309 187.308 481.941 193.554 481.941 193.554C515.972 192.001 517.389 177.08 517.389 177.08C495.302 155.557 474.994 142.863 459.487 141.181C456.833 140.893 453.478 142.582 451.088 143.651C445.656 146.078 442.088 153.071 442.088 153.071C442.088 153.071 444.824 175.421 454.797 177.129H454.792Z" fill="#61A0E0"/>
<path d="M457.975 180.065C463.114 180.629 468.42 181.013 471.2 182.126C472.334 165.095 464.325 152.285 464.325 152.285C464.325 152.285 459.102 173.62 457.975 180.065Z" fill="#F2CCAA"/>
<path d="M453.54 149.4C453.54 149.4 466.462 148.692 468.759 156.834C471.057 164.976 464.452 197.472 463.027 200.826C460.437 206.933 447.82 224.361 447.82 224.361L443.182 222.944C443.182 222.944 451.594 196.321 453.47 193.686C456.417 189.549 449.671 152.945 453.537 149.403L453.54 149.4Z" fill="#FFB27D"/>
<path d="M443.184 222.944C443.184 222.944 442.945 225.01 442.075 226.074C441.205 227.14 438.676 229.718 438.633 231.228C438.633 231.228 438.761 231.897 439.303 231.776C439.844 231.655 441.729 229.783 442.696 229.917C442.696 229.917 442.18 232.943 441.67 233.793C441.159 234.646 441.564 238.26 441.872 238.994C442.18 239.728 445.949 235.045 447.499 232.953C449.05 230.862 447.525 222.375 447.525 222.375L443.187 222.941L443.184 222.944Z" fill="#FFB27D"/>
<path d="M471.308 167.722C471.275 167.913 459.079 169.973 451.45 166.089C451.45 166.089 445.076 146.057 454.184 147.015C463.291 147.973 468.682 150.851 468.913 155.227C469.142 159.601 471.308 167.722 471.308 167.722Z" fill="#61A0E0"/>
<path d="M451.082 143.651C451.082 143.651 447.488 157.104 442.082 153.071C442.234 152.422 441.292 150.534 440.18 148.615C438.758 146.165 437.066 143.659 437.066 143.659L444.382 137.23L444.819 136.846C447.06 140.771 449.257 142.312 451.085 143.651H451.082Z" fill="#FFB27D"/>
<path d="M437.066 143.661C437.066 143.661 438.758 146.16 440.178 148.615C444.724 145.802 444.729 140.156 444.38 137.23L437.066 143.661Z" fill="#ED985F"/>
<path d="M436.862 146.884C436.862 146.884 447.901 140.72 443.97 133.881C440.04 127.043 438.816 121.641 431.603 125.286C424.389 128.933 424.53 132.328 425.29 134.93C426.05 137.534 433.89 148.308 436.862 146.881V146.884Z" fill="#FFB27D"/>
<path d="M423.425 130.945C423.931 127.908 425.468 127.62 426.539 127.82C430.615 121.056 437.277 123.697 437.277 123.697C440.834 128.176 445.976 128.941 445.976 128.941C445.976 128.941 444.695 131.331 439.418 132.812C437.805 133.266 435.975 132.99 434.212 132.395C437.872 134.443 441.702 135.228 441.702 135.228C434.748 135.867 428.13 129.487 427.442 128.804C427.122 129.794 426.559 131.864 426.896 133.376C427.353 135.432 429.173 139.159 428.061 139.641C428.061 139.641 422.665 135.499 423.422 130.945H423.425Z" fill="#2C3A64"/>
<path d="M288.348 230.682C289.036 231.472 289.124 232.353 288.782 233.296C288.782 233.299 288.782 233.306 288.775 233.309C288.146 235.053 286.069 237 283.656 238.945C283.348 239.195 283.073 239.421 282.835 239.633C282.773 239.687 282.709 239.743 282.65 239.797C282.601 239.841 282.555 239.885 282.509 239.926C280.26 242.007 281.104 242.484 277.064 246.708C272.454 251.52 269.281 251.607 268.38 251.169C267.615 250.796 269.168 248.243 270.888 245.374C270.97 245.235 271.052 245.096 271.139 244.957C271.368 244.575 271.596 244.189 271.822 243.805C273.837 240.354 273.319 238.734 272.841 233.595C272.454 229.42 266.367 210.269 266.367 210.269L275.2 208.741C275.2 208.741 277.86 223.99 280.791 226.339C282.357 227.591 284.113 227.606 285.62 228.533C285.725 228.598 285.83 228.665 285.933 228.732C286.788 229.301 287.661 229.888 288.348 230.682Z" fill="#FFB27D"/>
<path d="M288.349 230.682C289.037 231.473 289.124 232.353 288.783 233.296C288.783 233.299 288.783 233.306 288.775 233.309C288.005 235.05 285.979 236.987 283.649 238.927C283.343 239.182 283.076 239.414 282.835 239.633C282.773 239.687 282.709 239.743 282.65 239.797C282.601 239.841 282.555 239.885 282.509 239.926C280.26 242.007 281.105 242.484 277.064 246.708C272.454 251.52 269.281 251.607 268.38 251.17C267.615 250.796 269.168 248.243 270.888 245.374C271.786 245.044 275.953 243.344 279.105 239.3C281.88 235.746 283.731 231.181 285.62 228.536C285.725 228.601 285.831 228.668 285.933 228.734C286.788 229.304 287.661 229.891 288.349 230.684V230.682Z" fill="#233862"/>
<path d="M217.126 225.146C216.582 227.882 212.696 227.426 208.352 226.362C204.011 225.298 205.043 226.563 198.862 225.878C192.683 225.193 190.809 222.88 190.622 221.958C190.453 221.139 193.507 220.85 196.783 220.471C197.194 220.425 197.609 220.373 198.023 220.322C201.722 219.856 204.427 217.463 207.788 215.495C210.968 213.633 215.717 206.044 215.717 206.044L224.191 206.719C224.191 206.719 219.745 213.496 218.022 216.443C217.011 218.176 217.065 220.469 217.191 222.238C217.257 223.199 217.319 224.183 217.126 225.146Z" fill="#FFB27D"/>
<path d="M208.352 226.362C204.011 225.298 205.043 226.563 198.862 225.878C192.683 225.193 190.809 222.88 190.622 221.957C190.453 221.138 193.507 220.85 196.783 220.471L196.814 220.536C196.814 220.536 200.52 223.173 205.665 223.297C209.857 223.4 214.298 222.194 217.193 222.241C217.26 223.202 217.321 224.185 217.129 225.149C216.585 227.884 212.698 227.428 208.355 226.365L208.352 226.362Z" fill="#233862"/>
<path d="M249.604 170.772L257.526 192.164L267.868 220.095C267.868 220.095 270.677 220.368 273.364 219.59C275.839 218.872 278.678 216.994 278.678 216.994C278.678 216.994 275.806 187.004 270.448 169.79C269.075 165.37 267.537 161.798 265.838 159.786C257.534 149.936 249.602 170.774 249.602 170.774L249.604 170.772Z" fill="#233862"/>
<path d="M257.658 136.8C262.849 135.12 277.653 137.276 292.524 140.197L295.637 135.043L327.756 132.526C327.756 132.526 338.355 156.11 332.551 171.14C331.699 173.347 330.005 174.764 327.114 174.813C327.114 174.813 326.647 174.813 326.644 174.813C326.644 174.813 307.528 174.803 301.321 174.803C285.346 174.803 267.516 163.786 265.208 163.322C261.432 162.565 259.923 170.143 256.147 178.097C252.37 186.054 220.655 213.331 220.655 213.331C220.655 213.331 215.78 213.38 213.768 212.623C211.601 211.809 210.811 210.75 210.811 210.75C210.811 210.75 245.953 140.591 257.658 136.802V136.8Z" fill="#2B478B"/>
<path d="M286.687 90.2373C296.816 98.5029 321.224 112.829 321.357 112.768C321.357 112.768 329.176 117.468 334.51 115.161C343.4 111.317 350.228 97.8616 337.93 82.9736C331.797 75.5476 326.712 73.1032 327.905 63.2328C329.199 52.5382 324.386 39.0926 312.118 38.5259C311.094 38.4796 304.882 37.645 300.446 39.0436C289.146 42.6034 270.25 84.7612 286.687 90.2373Z" fill="#284191"/>
<path d="M319.913 77.7396C319.964 77.7473 317.443 83.262 313.775 84.5989C309.876 86.0259 304.339 83.7077 304.39 83.6767C305.052 83.2981 305.525 80.7893 305.268 77.7731C305.255 77.6314 305.245 77.4846 305.227 77.3378C304.883 73.9635 303.91 70.2672 303.848 70.0251C303.846 70.0174 303.846 70.0148 303.846 70.0148L315.734 66.6045L316.439 66.4036C317.186 75.8309 318.301 77.5618 319.915 77.7422L319.913 77.7396Z" fill="#FFB27D"/>
<path d="M315.731 66.6018C314.578 70.0688 311.637 76.3305 305.227 77.3351C304.883 73.9608 303.91 70.2646 303.848 70.0224C303.846 70.0147 303.846 70.0121 303.846 70.0121L315.734 66.6018H315.731Z" fill="#ED975D"/>
<path d="M301.865 73.6029C301.865 73.6029 317.888 72.5339 317.072 62.5322C316.256 52.5304 317.773 45.6557 307.507 45.9158C297.242 46.176 295.568 50.1556 295.032 53.5607C294.495 56.9659 297.676 73.6235 301.865 73.6029Z" fill="#FFB27D"/>
<path d="M298.986 45.738C298.986 45.738 302.968 57.4604 312.42 58.823C319.315 59.8172 322.053 57.9472 322.053 57.9472C322.053 57.9472 318.206 54.2767 316.119 48.6332C315.502 46.9692 314.05 45.7586 312.304 45.4882C307.396 44.7283 301.06 41.4674 298.986 45.7406V45.738Z" fill="#284191"/>
<path d="M302.383 47.8115C302.383 47.8115 299.523 48.9706 297.526 53.2567C296.435 55.5981 295.647 61.1772 296.319 63.4748C296.319 63.4748 291.712 52.7802 295.049 47.9583C298.586 42.8454 302.383 47.8115 302.383 47.8115Z" fill="#284191"/>
<path d="M333.25 114.65C332.965 115.864 332.721 116.982 332.523 118.012C332.197 119.676 331.974 121.108 331.817 122.375C331.33 126.319 331.476 128.658 331.147 131.213C330.965 132.642 330.629 134.141 329.951 136.024C329.289 137.856 311.923 139.489 302.043 138.832C298.906 138.628 296.516 138.183 295.666 137.449C292.142 134.376 292.493 141.132 292.011 108.809C291.777 93.0423 305.344 78.9991 305.344 78.9991C305.344 78.9991 306.427 85.7348 319.883 77.719C320.361 77.4382 325.659 85.3123 330.76 95.0076C336.379 105.718 334.839 107.984 333.252 114.653L333.25 114.65Z" fill="#AEC3FF"/>
<path d="M257.525 192.163L267.868 220.095C267.868 220.095 270.676 220.368 273.364 219.59C275.838 218.872 278.678 216.994 278.678 216.994C278.678 216.994 275.805 187.004 270.448 169.79L257.525 192.163Z" fill="#2B478B"/>
<path d="M305.341 78.9966C305.341 78.9966 291.497 81.3508 289.87 87.3344C288.242 93.3179 277.012 126.767 277.012 126.767C277.012 126.767 285.714 129.747 288.966 126.484C292.219 123.22 300.279 96.2157 300.279 96.2157L305.339 78.9992L305.341 78.9966Z" fill="#AEC3FF"/>
<path d="M304.541 67.1789C304.541 67.1789 304.148 68.9124 302.403 69.2034C300.657 69.4945 300.141 69.3116 299.751 68.9948C299.358 68.678 298.914 68.0186 298.914 68.0186C298.914 68.0186 301.712 66.9625 304.541 67.1789Z" fill="white"/>
<path d="M331.814 122.375C331.327 126.319 331.473 128.658 331.144 131.213C318.574 131.254 301.768 121.471 301.768 121.471L331.817 122.375H331.814Z" fill="#94B0ED"/>
<path d="M301.766 113.2C301.766 113.2 321.349 112.616 324.65 101.445C328.278 89.1735 332.339 106.491 332.339 106.491L330.177 117.543H308.691L301.766 113.2Z" fill="#94B0ED"/>
<path d="M305.742 131.723L275.358 132.006L260.408 96.7515L290.791 96.4656L305.742 131.723Z" fill="#61A0E0"/>
<path d="M301.768 115.789L299.54 113.043C299.54 113.043 298.033 111.694 296.94 111.464C295.846 111.235 293.536 109.898 293.313 110.274C293.089 110.65 295.086 113.337 295.086 113.337L295.189 113.352C292.894 115.083 287.103 113.556 286.389 114.262C285.522 115.117 287.583 116.969 288.687 118.007C289.791 119.045 292.951 120.778 295.415 120.008C297.214 119.447 300.048 118.875 300.048 118.875L301.771 115.789H301.768Z" fill="#FFB27D"/>
<path d="M319.882 77.7214C319.882 77.7214 332.594 78.556 335.772 83.5324C338.95 88.5062 342.89 113.764 341.24 122.44C339.587 131.115 298.879 120.781 298.879 120.781L300.178 113.254C300.178 113.254 323.671 113.391 325.011 110.32C326.79 106.238 319.885 77.7214 319.885 77.7214H319.882Z" fill="#AEC3FF"/>
<path d="M262.694 102.951C262.694 102.951 264.604 100.775 265.818 101.818C267.032 102.864 265.5 108.002 264.342 107.479C263.184 106.957 262.027 103.59 262.694 102.951Z" fill="#FFB27D"/>
<path d="M119.975 227.367C119.298 225.319 142.67 222.076 140.06 240.789C140.06 240.789 181.979 246.433 165.748 219.894C160.129 210.707 161.9 204.136 163.096 197.946C164.295 191.757 162.657 172.951 146.911 172.302C146.911 172.302 143.125 170.001 137.657 171.825C125.22 175.97 90.3085 229.682 119.973 227.369L119.975 227.367Z" fill="#163560"/>
<path d="M153.988 252.617C153.988 252.617 155.485 255.589 158.198 259.005C161.469 263.116 178.634 253.359 177.156 252.617C175.677 251.875 167.052 226.939 164.998 223.807C162.942 220.675 155.944 219.047 155.944 219.047L153.991 252.617H153.988Z" fill="#61A0E0"/>
<path d="M96.0611 420.795C96.0611 420.795 91.3223 425.132 92.249 428.216C93.1732 431.299 97.4498 433.354 98.0274 437.12C98.605 440.888 100.915 442.944 102.997 442.944H112.913C112.913 442.944 114.443 440.293 110.747 439.492C107.048 438.694 105.654 434.266 105.885 430.155C106.116 426.044 105.538 420.565 105.538 420.565L97.6808 418.739L96.0636 420.795H96.0611Z" fill="#233862"/>
<path d="M136.163 422.636C136.163 422.636 134.459 441.015 136.538 442.042L163.158 441.988C163.158 441.988 163.158 438.905 158.882 438.22C154.605 437.535 147.094 435.023 145.823 429.429C144.552 423.834 136.161 422.636 136.161 422.636H136.163Z" fill="#233862"/>
<path d="M117.193 290.777C122.671 278.45 126.024 274.913 125.382 271.085C124.907 268.239 126.832 217.993 126.832 217.993C127.482 217.793 128.786 217.61 129.497 217.453C131.743 216.953 133.604 215.369 134.377 213.192C135.309 210.573 136.051 206.704 136.033 201.856L136.733 201.995L148.531 204.339C148.531 204.339 148.262 208.064 148.254 211.575C148.254 211.603 148.254 211.634 148.254 211.662C148.239 214.709 150.233 217.401 153.152 218.246C154.643 218.679 155.94 219.047 155.94 219.047C155.94 219.047 160.273 231.457 161.099 244.207C161.926 256.957 153.221 262.495 161.166 287.975C169.275 313.998 114.164 297.588 117.191 290.777H117.193Z" fill="#FFB27D"/>
<path d="M148.535 204.339C148.535 204.339 148.265 208.064 148.258 211.575C141.655 211.389 138.167 205.344 136.734 201.995L148.532 204.339H148.535Z" fill="#E8945B"/>
<path d="M149.247 209.29C149.247 209.29 133.781 207.08 135.3 197.436C136.82 187.792 135.847 181.013 145.787 182.015C155.726 183.019 157.061 187.002 157.333 190.345C157.605 193.688 153.308 209.617 149.247 209.29Z" fill="#FFB27D"/>
<path d="M152.851 182.901C152.851 182.901 146.832 193.539 140.083 194.175C133.334 194.812 130.801 192.62 130.801 192.62C130.801 192.62 136.402 189.451 138.533 182.698C138.533 182.698 150.521 177.008 152.851 182.901Z" fill="#163560"/>
<path d="M151.658 183.653C151.658 183.653 154.603 185.33 155.529 187.826C156.433 190.268 157.036 193.41 156.21 197.011C156.21 197.011 160.612 189.83 157.727 184.91C154.667 179.692 151.658 183.653 151.658 183.653Z" fill="#163560"/>
<path d="M115.687 240.22C115.687 240.22 115.289 245.832 115.687 252.565C115.951 257.029 120.451 263.008 121.088 264.486C122.689 268.195 124.497 268.798 124.497 268.798L138.474 272.234L143.387 273.442L158.884 268.798C158.884 268.798 165.944 249.029 163.11 237.901C160.276 226.774 155.945 219.044 155.945 219.044C155.945 219.044 143.3 231.47 126.833 217.991L115.687 240.217V240.22Z" fill="#61A0E0"/>
<path d="M114.354 252.723C114.618 257.186 120.448 263.01 121.087 264.489C122.689 268.198 124.496 268.801 124.496 268.801L138.473 272.237L142.2 266.961C142.2 266.961 119.575 260.648 123.859 240.632L114.354 252.723Z" fill="#F2CCAA"/>
<path d="M157.898 271.801C157.898 271.801 165.573 295.772 166.066 303.932C166.559 312.092 151.396 419.865 150.785 423.626C150.21 427.17 145.823 429.429 145.823 429.429C145.823 429.429 143.805 430.624 140.925 429.807C136.931 428.677 135.668 427.319 135.668 427.319C135.668 427.319 129.694 350.458 133.391 323C137.087 295.542 137.131 271.799 137.131 271.799H157.895L157.898 271.801Z" fill="#F57A44"/>
<path d="M125.382 271.085C125.382 271.085 113.676 286.847 112.582 297.5C111.491 308.154 110.87 345.58 108.545 355.965C106.219 366.351 97.6758 386.339 97.6758 418.737C97.6758 418.737 98.564 420.594 101.306 421.583C102.183 421.9 103.357 422.206 104.496 422.469C106.758 422.99 109.078 421.879 110.11 419.796C115.886 408.127 134.284 370.495 135.226 362.683C135.893 357.155 141.703 320.566 154.373 299.097C157.415 293.943 152.507 273.445 152.507 273.445L125.379 271.085H125.382Z" fill="#FC9774"/>
<path d="M147.143 203.085C147.143 203.085 147.23 204.265 150.074 204.538C150.074 204.538 152.461 204.769 152.59 203.507C152.59 203.507 150.436 202.253 147.145 203.082L147.143 203.085Z" fill="white"/>
<path d="M159.125 268.1C159.125 268.1 156.045 270.547 149.923 270.668C142.612 270.815 124.496 268.798 124.496 268.798C124.496 268.798 123.69 271.054 123.724 273.437C123.724 273.437 145.849 279.037 158.668 274.254C158.668 274.254 160.322 271.132 159.123 268.097L159.125 268.1Z" fill="#233862"/>
<path d="M148.34 273.203C148.34 271.114 149.836 269.414 151.674 269.414C153.512 269.414 155.012 271.114 155.012 273.203C155.012 275.292 153.515 276.992 151.674 276.992C149.834 276.992 148.34 275.292 148.34 273.203ZM149.446 273.203C149.446 274.681 150.447 275.881 151.677 275.881C152.907 275.881 153.908 274.678 153.908 273.203C153.908 271.727 152.907 270.524 151.677 270.524C150.447 270.524 149.446 271.727 149.446 273.203Z" fill="white"/>
<path d="M135.693 283.884L168.946 284.196L185.311 245.608L152.055 245.297L135.693 283.884Z" fill="#C5D9EA"/>
<path d="M140.041 266.446L142.48 263.44C142.48 263.44 144.13 261.965 145.326 261.712C146.523 261.462 149.051 259.999 149.295 260.411C149.539 260.823 147.354 263.762 147.354 263.762L147.244 263.778C149.755 265.674 156.093 263.999 156.875 264.772C157.823 265.71 155.569 267.734 154.36 268.87C153.151 270.006 149.693 271.904 146.998 271.062C145.026 270.447 141.925 269.821 141.925 269.821L140.041 266.444V266.446Z" fill="#FFB27D"/>
<path d="M182.809 252.396C182.809 252.396 180.719 250.013 179.39 251.157C178.06 252.3 179.739 257.923 181.004 257.351C182.27 256.779 183.538 253.094 182.809 252.396Z" fill="#FFB27D"/>
<path d="M126.832 217.993C126.832 217.993 115.742 218.774 111.494 229.141C107.243 239.509 99.3594 261.617 99.3594 264.545C99.3594 267.474 108.062 278.249 142.11 269.919C142.11 269.919 143.271 266.64 140.994 264.981C140.994 264.981 117.257 257.333 117.298 255.811C117.375 252.934 120.506 250.448 133.765 237.139C137.369 233.52 126.832 217.993 126.832 217.993Z" fill="#61A0E0"/>
<g opacity="0.7">
<path d="M508.104 123.029L541.321 133.928L521.424 114.468L519.404 119.222L510.853 119.264L508.104 123.029Z" fill="#9EC3F6"/>
<path d="M541.321 133.927L515.54 114.249L487.996 107.935L541.321 133.927Z" fill="white"/>
<path d="M521.424 114.468L541.321 133.928L528.057 106.666L521.424 114.468Z" fill="white"/>
</g>
<g opacity="0.7">
<path d="M402.109 66.8904L367.064 71.9054L390.322 56L391.502 61.1L400.025 62.6481L402.109 66.8904Z" fill="#9EC3F6"/>
<path d="M367.064 71.9055L396.228 56.8191L424.809 55.3767L367.064 71.9055Z" fill="white"/>
<path d="M390.322 56L367.064 71.9055L385.067 47.0466L390.322 56Z" fill="white"/>
</g>
<path d="M221.984 442.223H219.943C209.277 440.142 171.529 431.958 171.848 420.362C172.197 407.828 215.762 437.867 221.984 442.223Z" fill="#CDE0FB"/>
<path d="M238.452 442.223H230.69C211.08 429.372 181.721 407.311 184.011 391.694C187.423 368.401 207.168 398.471 213.596 410.268C217.598 417.609 229.806 432.234 238.452 442.223Z" fill="#CDE0FB"/>
<path d="M73.9921 244.042L62.4611 259.572C62.2917 259.801 62.0863 259.989 61.863 260.138C61.0493 260.682 59.948 260.682 59.1189 260.061L32.2397 239.967C31.408 239.344 31.0974 238.28 31.3875 237.34C31.4645 237.085 31.5877 236.84 31.7545 236.616L43.2804 221.092C44.0685 220.031 45.5625 219.812 46.6201 220.6L73.4993 240.694C74.5543 241.482 74.7751 242.976 73.9921 244.04V244.042Z" fill="#CDE0FB"/>
<path d="M61.863 260.138C61.0493 260.682 59.948 260.682 59.1189 260.061L32.2397 239.967C31.408 239.344 31.0974 238.28 31.3875 237.34L53.2301 241.333L61.8604 260.141L61.863 260.138Z" fill="#BED7FB"/>
<path d="M73.9929 244.042L51.0002 243.44L42.6934 221.888L43.2838 221.095C44.0718 220.033 45.5658 219.814 46.6235 220.603L73.5026 240.696C74.5577 241.485 74.7784 242.978 73.9955 244.042H73.9929Z" fill="#DFEBFD"/>
<path d="M486.766 333.18L500.061 406.649C500.256 407.73 500.253 408.807 500.079 409.832C499.46 413.565 496.564 416.676 492.645 417.39L365.485 440.559C361.545 441.277 357.738 439.353 355.859 436.056C355.351 435.168 354.983 434.179 354.791 433.117L341.502 359.679C340.593 354.654 343.907 349.85 348.905 348.941L476.064 325.772C481.052 324.862 485.837 328.17 486.764 333.18H486.766Z" fill="#F57A44"/>
<path d="M486.766 333.18L424.58 396.631L342.182 363.437L341.502 359.679C340.593 354.654 343.907 349.85 348.905 348.941L476.064 325.772C481.052 324.862 485.837 328.17 486.764 333.18H486.766Z" fill="#FC9774"/>
<path d="M575.103 422.454C578.176 420.818 582.288 412.815 575.491 400.541C568.691 388.27 547.585 397.883 547.585 397.883C547.585 397.883 538.246 424.635 534.011 426.271C529.778 427.904 537.543 401.832 537.543 401.832C528.874 403.115 509.868 418.891 509.868 418.891C509.868 418.891 514.691 434.889 514.737 442.284H557.576L572.978 442.333C575.162 436.329 575.968 430.673 575.968 430.673C568.658 435.108 553.376 434.256 552.149 431.649C550.927 429.045 572.023 424.092 575.101 422.454H575.103ZM494.61 438.101C494.145 439.572 493.873 440.968 493.768 442.284H510.487C508.238 435.595 507.473 422.103 507.473 422.103C499.89 426.608 494.61 438.099 494.61 438.099V438.101Z" fill="#CDE0FB"/>
<path d="M17.5102 440.698H702.956C703.533 440.698 704.003 441.169 704.003 441.749V442.952C704.003 443.531 703.533 444.002 702.956 444.002H17.5102C16.9327 444.002 16.4629 443.531 16.4629 442.952V441.749C16.4629 441.169 16.9327 440.698 17.5102 440.698Z" fill="#2E3552"/>
<path d="M416.321 384.554C416.963 382.189 418.005 380.602 420.212 380.577C423.532 380.541 424.692 382.444 425.246 384.59C425.996 387.49 422.98 388.556 420.785 388.781C417.643 389.102 415.741 386.692 416.323 384.554H416.321Z" fill="#2B478B"/>
</g>
<defs>
<clipPath id="clip0_174_2916">
<rect width="704" height="444" fill="white"/>
</clipPath>
</defs>
</svg>
